<?xml version="1.0" encoding="utf-8"?>
<!-- Generator: Adobe Illustrator 27.8.1, SVG Export Plug-In . SVG Version: 6.00 Build 0)  -->
<svg version="1.1" id="Outline" xmlns="http://www.w3.org/2000/svg" xmlns:xlink="http://www.w3.org/1999/xlink" x="0px" y="0px"
	 viewBox="0 0 64 64" enable-background="new 0 0 64 64" xml:space="preserve">
<g>
	<path d="M52.36328,17.50879c-0.3208-0.4502-0.94678-0.5542-1.39453-0.23242c-0.44971,0.3208-0.55371,0.94531-0.23242,1.39453
		C53.52539,22.57568,55,27.18506,55,32c0,12.68213-10.31787,23-23,23S9,44.68213,9,32S19.31787,9,32,9
		c4.81494,0,9.42432,1.47461,13.3291,4.26367c0.44727,0.32031,1.07324,0.21729,1.39453-0.23242
		c0.32129-0.44922,0.21729-1.07373-0.23242-1.39453C42.24561,8.60303,37.23438,7,32,7C18.21484,7,7,18.21484,7,32s11.21484,25,25,25
		s25-11.21484,25-25C57,26.76562,55.39697,21.75439,52.36328,17.50879z"/>
	<path d="M32,11c-11.57959,0-21,9.42041-21,21s9.42041,21,21,21s21-9.42041,21-21S43.57959,11,32,11z M32,51
		c-10.47656,0-19-8.52344-19-19s8.52344-19,19-19s19,8.52344,19,19S42.47656,51,32,51z"/>
	<path d="M37.46478,24.58588L29,33.05029l-2.46478-2.46454c-1.17151-1.17139-3.07074-1.17133-4.24219,0.00012l-0.00006,0.00006
		c-1.17145,1.17145-1.17151,3.07074-0.00006,4.24219l4.58594,4.58624c1.17145,1.17151,3.07086,1.17151,4.24237,0l10.58582-10.58624
		c1.17145-1.17145,1.17145-3.07074,0-4.24219S38.63629,23.41443,37.46478,24.58588z M40.29297,27.41406l-10.58582,10.5863
		c-0.39056,0.3905-1.02374,0.3905-1.41425-0.00006l-4.58594-4.58624C23.31653,33.02356,23.31653,32.3905,23.70703,32v-0.00006
		c0.3905-0.39044,1.02356-0.39044,1.41406,0l3.17181,3.17145c0.3905,0.3905,1.02362,0.3905,1.41418,0l9.17181-9.17145
		C39.26941,25.6095,39.90247,25.6095,40.29297,26C40.68347,26.39044,40.68347,27.02356,40.29297,27.41406z"/>
	<circle cx="48.97058" cy="15.02942" r="1"/>
</g>
</svg>
