<?xml version="1.0" encoding="utf-8"?>
<!-- Generator: Adobe Illustrator 27.8.1, SVG Export Plug-In . SVG Version: 6.00 Build 0)  -->
<svg version="1.1" id="Outline" xmlns="http://www.w3.org/2000/svg" xmlns:xlink="http://www.w3.org/1999/xlink" x="0px" y="0px"
	 viewBox="0 0 64 64" enable-background="new 0 0 64 64" xml:space="preserve">
<g>
	<path d="M29.65918,42.63574c-0.16211-1.61475-0.99023-3.11377-2.27148-4.1123l-6.45605-5.0293
		c-1.2486-0.97217-2.91144-1.1051-4.27545-0.47083l-1.3222-8.6283c-0.28809-1.88867-1.9502-3.29785-3.8584-3.28174
		c-2.06348,0.01904-3.74512,1.64795-3.8291,3.70752L7.00098,40.42676c-0.00977,0.23926,0.06641,0.47363,0.21484,0.66162
		l7.34772,9.29993l0.68158,5.72986C15.30469,56.62109,15.73145,57,16.23828,57c0,0,13.74547,0,13.7617,0
		c0.5869,0,1.0538-0.51802,0.99513-1.09961L29.65918,42.63574z M9.64453,24.90332c0.04102-0.99463,0.85352-1.78076,1.84863-1.79004
		c0.89453,0.01807,1.72461,0.67285,1.86426,1.58447l1.51996,9.91888c-0.97064,1.60211-0.74701,3.69556,0.63922,5.05865
		l2.12793,2.09326c0.39258,0.38672,1.02734,0.38232,1.41406-0.01172c0.3877-0.39355,0.38184-1.02686-0.01172-1.41406
		l-2.12793-2.09326c-0.8125-0.79883-0.84863-2.08545-0.08301-2.92969c0.73828-0.81543,1.99805-0.92529,2.86719-0.24756
		l6.45605,5.02881c0.85156,0.66406,1.40234,1.66113,1.50977,2.73486l0.3042,3.02844L15.9184,48.87781l-6.90375-8.73865
		L9.64453,24.90332z M17.12598,55l-0.50391-4.23682l11.55762-2.88916L28.89453,55H17.12598z"/>
	<path d="M56.99902,40.42676l-0.64551-15.60547c-0.08398-2.06006-1.76562-3.68896-3.8291-3.70801
		c-1.94043-0.00684-3.56934,1.39355-3.8584,3.28174l-1.32227,8.62872c-1.36462-0.63489-3.02643-0.50208-4.27539,0.4704
		l-6.45605,5.02979c-1.28125,0.99805-2.10938,2.49707-2.27148,4.11182c0,0-1.33111,13.21648-1.33592,13.26446
		C32.94749,56.47263,33.42838,57,34,57h13.76172c0.50684,0,0.93359-0.37891,0.99316-0.88184l0.68158-5.72986l7.34772-9.29993
		C56.93262,40.90039,57.00879,40.66602,56.99902,40.42676z M46.87402,55H35.10547l0.71484-7.12598l11.55762,2.88916L46.87402,55z
		 M48.0816,48.87781l-12.05475-3.01343l0.3042-3.02844c0.10742-1.07373,0.6582-2.0708,1.50977-2.73438l6.45605-5.0293
		c0.86719-0.67627,2.12793-0.56982,2.86719,0.24756c0.76562,0.84424,0.72949,2.13086-0.08301,2.92969l-2.12793,2.09326
		c-0.39355,0.38721-0.39941,1.02051-0.01172,1.41406c0.38574,0.39404,1.01953,0.39844,1.41406,0.01172l2.12793-2.09326
		c1.38623-1.3631,1.60986-3.45654,0.63922-5.05865l1.51996-9.91888c0.13965-0.91162,0.92773-1.56348,1.86426-1.58447
		c0.99512,0.00928,1.80762,0.79541,1.84863,1.79053l0.62988,15.23535L48.0816,48.87781z"/>
	<path d="M46,21c0-2.26611-0.52539-4.42627-1.56251-6.42139c-0.25488-0.48926-0.85839-0.68115-1.34863-0.42578
		c-0.49023,0.25488-0.68066,0.8584-0.42676,1.34863C43.5498,17.2085,44,19.05811,44,21c0,6.6167-5.38281,12-12,12s-12-5.3833-12-12
		S25.38281,9,32,9c1.94043,0,3.79102,0.4502,5.49902,1.3374c0.49023,0.25488,1.09277,0.06348,1.34863-0.42627
		c0.25391-0.48975,0.06348-1.09375-0.42676-1.34814C36.42578,7.52588,34.26465,7,32,7c-7.71973,0-14,6.28027-14,14s6.28027,14,14,14
		S46,28.71973,46,21z"/>
	<circle cx="41.19238" cy="11.80762" r="1"/>
	<path d="M34.46478,15.58575L30,20.05017l-0.46478-0.46466c-1.17151-1.17133-3.07068-1.1712-4.24213,0.00018l-0.00012,0.00012
		c-1.17145,1.17151-1.17151,3.07074-0.00006,4.24225l2.58575,2.58594c1.17157,1.17169,3.07117,1.17169,4.24274,0.00006
		l6.58569-6.586c1.17139-1.17145,1.17139-3.0708-0.00006-4.24225S35.63629,14.41431,34.46478,15.58575z M37.29297,18.414
		l-6.58582,6.58624c-0.39056,0.39056-1.02374,0.3905-1.41431-0.00006L26.70697,22.414
		c-0.39044-0.3905-0.39044-1.02362,0.00006-1.41406l0.00006-0.00012c0.39044-0.39044,1.0235-0.39044,1.414-0.00006l1.17181,1.17163
		c0.39056,0.39044,1.02362,0.39038,1.41412-0.00006l5.17188-5.17145c0.3905-0.3905,1.02356-0.3905,1.41406,0
		S37.68347,18.0235,37.29297,18.414z"/>
</g>
</svg>
